
      <svg data-logo="logo" xmlns="http://www.w3.org/2000/svg" viewBox="0 0 182 43">
        <g id="logogram" transform="translate(0, 1) rotate(0) "><path fill-rule="evenodd" clip-rule="evenodd" d="M11.2539 5.98596C18.0186 2.32934 27.3366 0.0799561 37.607 0.0799561C47.8775 0.0799561 57.1955 2.32934 63.9602 5.98596C70.709 9.63396 75.007 14.7403 75.007 20.48C75.007 26.2197 70.709 31.326 63.9602 34.974C57.1955 38.6306 47.8775 40.88 37.607 40.88C27.3366 40.88 18.0186 38.6306 11.2539 34.974C4.50509 31.326 0.207031 26.2197 0.207031 20.48C0.207031 14.7403 4.50509 9.63396 11.2539 5.98596ZM11.6343 6.68972C4.99173 10.2803 1.00703 15.174 1.00703 20.48C1.00703 25.786 4.99173 30.6797 11.6343 34.2702C15.2143 36.2054 19.5401 37.7453 24.3637 38.7522C20.0005 37.7653 16.0705 36.3044 12.7809 34.4813C6.42086 30.9565 2.37175 26.0229 2.37175 20.48C2.37175 14.937 6.42086 10.0035 12.7809 6.47866C16.0711 4.6552 20.002 3.19415 24.3661 2.20726C19.5416 3.21417 15.2149 4.75427 11.6343 6.68972ZM50.8476 2.20718C55.2119 3.19407 59.1429 4.65515 62.4332 6.47866C68.7932 10.0035 72.8423 14.937 72.8423 20.48C72.8423 26.0229 68.7932 30.9565 62.4332 34.4813C59.1435 36.3045 55.2133 37.7654 50.85 38.7522C55.6738 37.7453 59.9997 36.2054 63.5798 34.2702C70.2224 30.6797 74.207 25.786 74.207 20.48C74.207 15.174 70.2224 10.2803 63.5798 6.68972C59.9991 4.75421 55.6723 3.21409 50.8476 2.20718ZM13.1687 7.17838C6.9208 10.641 3.17175 15.3605 3.17175 20.48C3.17175 25.5995 6.9208 30.3189 13.1687 33.7816C16.607 35.6871 20.777 37.1955 25.4303 38.1653C21.2391 37.2128 17.4663 35.7824 14.3182 33.9882C8.34965 30.5863 4.5518 25.8255 4.5518 20.4798C4.5518 15.1343 8.34965 10.3734 14.3182 6.97157C17.4626 5.17937 21.2304 3.75018 25.4158 2.79775C20.7683 3.76757 16.6034 5.27483 13.1687 7.17838ZM49.7984 2.79776C53.9837 3.75019 57.7514 5.17938 60.8958 6.97157C66.8644 10.3734 70.6622 15.1343 70.6622 20.4798C70.6622 25.8255 66.8644 30.5863 60.8958 33.9882C57.7478 35.7824 53.9749 37.2128 49.7837 38.1653C54.4371 37.1956 58.6071 35.6871 62.0454 33.7816C68.2933 30.3189 72.0423 25.5995 72.0423 20.48C72.0423 15.3605 68.2933 10.641 62.0454 7.17838C58.6107 5.27483 54.4458 3.76758 49.7984 2.79776ZM14.7144 7.6666C8.86408 11.001 5.3518 15.5463 5.3518 20.4798C5.3518 25.4135 8.86408 29.9587 14.7144 33.2931C17.9858 35.1577 21.9648 36.6277 26.4076 37.56C22.4239 36.6426 18.8393 35.2492 15.8552 33.4947C10.2781 30.2156 6.73198 25.6275 6.73198 20.4798C6.73198 15.332 10.2781 10.744 15.8552 7.46484C18.8381 5.71099 22.4212 4.31807 26.4031 3.40068C21.9621 4.333 17.9847 5.80266 14.7144 7.6666ZM48.8124 3.40099C52.7938 4.31838 56.3764 5.71118 59.359 7.46484C64.9361 10.744 68.4822 15.332 68.4822 20.4798C68.4822 25.6275 64.9361 30.2156 59.359 33.4947C56.3753 35.2491 52.7911 36.6423 48.8079 37.5596C53.2502 36.6274 57.2287 35.1575 60.4997 33.2931C66.35 29.9587 69.8623 25.4135 69.8623 20.4798C69.8623 15.5463 66.35 11.001 60.4997 7.6666C57.2298 5.80286 53.2528 4.33332 48.8124 3.40099ZM16.2607 8.15447C10.808 11.3604 7.53198 15.7315 7.53198 20.4798C7.53198 25.228 10.808 29.5991 16.2607 32.8051C19.3586 34.6266 23.1376 36.0567 27.3594 36.9511C23.593 36.069 20.2052 34.7141 17.3915 33.0013C12.2058 29.8445 8.91204 25.4293 8.91204 20.4801C8.91204 15.5309 12.2058 11.1158 17.3915 7.95901C20.2126 6.24169 23.6108 4.88413 27.3891 4.00228C23.1553 4.89616 19.3658 6.32875 16.2607 8.15447ZM47.8242 4.0021C51.6028 4.88394 55.0014 6.24157 57.8227 7.95901C63.0084 11.1158 66.3021 15.5309 66.3021 20.4801C66.3021 25.4293 63.0084 29.8445 57.8227 33.0013C55.0087 34.7142 51.6206 36.0692 47.8539 36.9512C52.0761 36.0569 55.8554 34.6267 58.9535 32.8051C64.4062 29.5991 67.6822 25.228 67.6822 20.4798C67.6822 15.7315 64.4062 11.3604 58.9535 8.15447C55.8482 6.32863 52.0584 4.89596 47.8242 4.0021ZM17.8074 8.64235C12.7524 11.7196 9.71204 15.9166 9.71204 20.4801C9.71204 25.0437 12.7524 29.2407 17.8074 32.3179C20.7375 34.1015 24.3249 35.4946 28.3354 36.3496C24.7763 35.5037 21.5764 34.1838 18.927 32.5068C14.1329 29.4721 11.0921 25.23 11.0921 20.48C11.0921 15.73 14.1329 11.4879 18.927 8.45321C21.5735 6.77803 24.7692 5.45923 28.3237 4.61317C24.3179 5.46837 20.7346 6.86046 17.8074 8.64235ZM46.8905 4.61318C50.4449 5.45924 53.6406 6.77804 56.2871 8.45321C61.0813 11.4879 64.122 15.73 64.122 20.48C64.122 25.23 61.0813 29.4721 56.2871 32.5068C53.6377 34.1838 50.4379 35.5037 46.8787 36.3496C50.8892 35.4946 54.4767 34.1015 57.4067 32.3179C62.4618 29.2407 65.5021 25.0437 65.5021 20.4801C65.5021 15.9166 62.4618 11.7196 57.4067 8.64235C54.4795 6.86047 50.8963 5.46838 46.8905 4.61318ZM19.3549 9.12917C14.6973 12.0774 11.8921 16.1004 11.8921 20.48C11.8921 24.8595 14.6973 28.8826 19.3549 31.8308C21.9831 33.4944 25.1854 34.8037 28.763 35.6281C25.6302 34.8135 22.8104 33.5781 20.4617 32.0225C16.0591 29.1067 13.2722 25.034 13.2722 20.48C13.2722 15.926 16.0591 11.8532 20.4617 8.93744C22.81 7.38214 25.6293 6.14682 28.7614 5.33226C25.1845 6.15669 21.9827 7.46582 19.3549 9.12917ZM46.4527 5.33226C49.5848 6.14682 52.4041 7.38215 54.7524 8.93744C59.155 11.8532 61.9419 15.926 61.9419 20.48C61.9419 25.034 59.155 29.1067 54.7524 32.0225C52.4037 33.578 49.5839 34.8135 46.4511 35.6281C50.0287 34.8037 53.231 33.4944 55.8592 31.8308C60.5168 28.8826 63.322 24.8595 63.322 20.48C63.322 16.1004 60.5168 12.0774 55.8592 9.12917C53.2314 7.46582 50.0296 6.15669 46.4527 5.33226ZM20.9034 9.60442C16.6432 12.4259 14.0722 16.2791 14.0722 20.48C14.0722 24.6808 16.6432 28.534 20.9034 31.3555C23.4754 33.0589 26.6487 34.3745 30.2006 35.1491C27.0892 34.3759 24.2945 33.1284 21.9954 31.5264C17.9849 28.7321 15.4522 24.8328 15.4522 20.4798C15.4522 16.1269 17.9849 12.2277 21.9954 9.4333C24.2923 7.83286 27.0839 6.58615 30.1917 5.81275C26.6434 6.58762 23.4733 7.90242 20.9034 9.60442ZM45.0213 5.81251C48.1295 6.58589 50.9215 7.83269 53.2186 9.4333C57.2291 12.2277 59.7618 16.1269 59.7618 20.4798C59.7618 24.8328 57.2291 28.7321 53.2186 31.5264C50.9193 33.1285 48.1242 34.3762 45.0124 35.1494C48.5648 34.3748 51.7384 33.0591 54.3107 31.3555C58.5709 28.534 61.1419 24.6808 61.1419 20.48C61.1419 16.2791 58.5709 12.4259 54.3107 9.60442C51.7406 7.90224 48.57 6.58734 45.0213 5.81251ZM22.4527 10.0897C18.5894 12.7815 16.2522 16.4613 16.2522 20.4798C16.2522 24.4984 18.5894 28.1782 22.4527 30.87C24.8256 32.5234 27.7628 33.794 31.052 34.528C28.1919 33.7913 25.6239 32.5852 23.5171 31.0296C19.8966 28.3564 17.6169 24.6311 17.6169 20.4801C17.6169 16.3292 19.8966 12.6039 23.5171 9.93068C25.6284 8.37178 28.203 7.16378 31.0705 6.42754C27.7738 7.16092 24.83 8.43321 22.4527 10.0897ZM44.1428 6.42737C47.0105 7.1636 49.5853 8.37167 51.6968 9.93068C55.3173 12.6039 57.597 16.3292 57.597 20.4801C57.597 24.6311 55.3173 28.3564 51.6968 31.0296C49.5898 32.5853 47.0216 33.7915 44.1613 34.5282C47.4507 33.7942 50.3882 32.5235 52.7613 30.87C56.6245 28.1782 58.9618 24.4984 58.9618 20.4798C58.9618 16.4613 56.6245 12.7815 52.7613 10.0897C50.3838 8.43309 47.4397 7.16073 44.1428 6.42737ZM23.9923 10.5743C20.5226 13.1361 18.4169 16.6429 18.4169 20.4801C18.4169 24.3174 20.5226 27.8242 23.9923 30.386C26.1982 32.0148 28.9469 33.2533 32.0271 33.9395C24.9663 32.0866 19.7971 26.8109 19.7971 20.4801C19.7971 14.1497 24.9656 8.87432 32.0257 7.02113C28.946 7.70734 26.1979 8.94578 23.9923 10.5743ZM43.1898 7.02148C50.2492 8.87499 55.417 14.1501 55.417 20.4801C55.417 26.8105 50.2485 32.086 43.1884 33.9391C46.2679 33.2529 49.0161 32.0145 51.2216 30.386C54.6913 27.8242 56.797 24.3174 56.797 20.4801C56.797 16.6429 54.6913 13.1361 51.2216 10.5743C49.0164 8.94606 46.2688 7.70776 43.1898 7.02148ZM32.8913 7.62907C25.7437 9.2451 20.5971 14.4407 20.5971 20.4801C20.5971 26.5213 25.7467 31.7182 32.8976 33.3326C26.5951 31.6161 21.9772 26.5452 21.9772 20.48C21.9772 14.4168 26.5921 9.34718 32.8913 7.62907ZM42.3229 7.62908C48.6222 9.34719 53.2369 14.4168 53.2369 20.48C53.2369 26.5451 48.6191 31.6161 42.3166 33.3326C49.4674 31.7181 54.617 26.5213 54.617 20.4801C54.617 14.4407 49.4704 9.24512 42.3229 7.62908ZM33.6737 8.25332C27.3611 9.73206 22.7772 14.6826 22.7772 20.48C22.7772 26.2777 27.3617 31.2285 33.6748 32.7069C28.1749 31.1106 24.1572 26.2526 24.1572 20.4799C24.1572 14.7076 28.1743 9.84998 33.6737 8.25332ZM41.5399 8.25318C47.0395 9.8497 51.0568 14.7074 51.0568 20.4799C51.0568 26.2528 47.0389 31.1108 41.5387 32.707C47.8522 31.2288 52.4369 26.2778 52.4369 20.48C52.4369 14.6825 47.8528 9.73176 41.5399 8.25318ZM37.607 8.49753C30.6007 8.49753 24.9572 13.8817 24.9572 20.4799C24.9572 27.0781 30.6007 32.4624 37.607 32.4624C44.6133 32.4624 50.2568 27.0781 50.2568 20.4799C50.2568 13.8817 44.6133 8.49753 37.607 8.49753Z" fill="black"/></g>
        <g id="logotype" transform="translate(81, 8.5)"><path fill="#111111" d="M19.43 26.34L19.43 26.34Q16.05 26.34 13.37 24.80Q10.70 23.27 9.15 20.34Q7.61 17.42 7.61 13.29L7.61 13.29Q7.61 9.13 9.16 6.20Q10.72 3.27 13.40 1.73Q16.08 0.19 19.43 0.19L19.43 0.19Q21.60 0.19 23.47 0.80Q25.35 1.41 26.80 2.57Q28.25 3.73 29.17 5.42Q30.10 7.10 30.39 9.23L30.39 9.23L25.11 9.23Q24.94 8.19 24.45 7.38Q23.96 6.57 23.24 6.00Q22.51 5.42 21.57 5.12Q20.63 4.83 19.54 4.83L19.54 4.83Q17.55 4.83 16.05 5.82Q14.54 6.81 13.72 8.70Q12.90 10.58 12.90 13.29L12.90 13.29Q12.90 16.04 13.74 17.92Q14.58 19.80 16.07 20.75Q17.55 21.71 19.52 21.71L19.52 21.71Q20.61 21.71 21.54 21.41Q22.47 21.11 23.22 20.54Q23.96 19.97 24.45 19.15Q24.94 18.33 25.12 17.30L25.12 17.30L30.40 17.30Q30.20 19.06 29.35 20.69Q28.51 22.31 27.11 23.59Q25.70 24.87 23.77 25.61Q21.84 26.34 19.43 26.34ZM40.35 26.38L40.35 26.38Q37.48 26.38 35.38 25.14Q33.27 23.90 32.14 21.68Q31.00 19.47 31.00 16.53L31.00 16.53Q31.00 13.56 32.14 11.35Q33.27 9.13 35.38 7.89Q37.48 6.65 40.35 6.65L40.35 6.65Q43.24 6.65 45.33 7.89Q47.42 9.13 48.56 11.35Q49.70 13.56 49.70 16.53L49.70 16.53Q49.70 19.47 48.56 21.68Q47.42 23.90 45.33 25.14Q43.24 26.38 40.35 26.38ZM40.35 22.34L40.35 22.34Q41.72 22.34 42.64 21.58Q43.56 20.82 44.02 19.50Q44.48 18.17 44.48 16.52L44.48 16.52Q44.48 14.82 44.02 13.51Q43.56 12.19 42.64 11.44Q41.72 10.69 40.35 10.69L40.35 10.69Q38.98 10.69 38.07 11.44Q37.15 12.19 36.69 13.51Q36.23 14.82 36.23 16.52L36.23 16.52Q36.23 18.17 36.69 19.50Q37.15 20.82 38.07 21.58Q38.98 22.34 40.35 22.34ZM62.20 26L56.38 26L49.34 6.89L54.79 6.89L58.00 16.81Q58.58 18.67 59.02 20.57Q59.45 22.46 59.91 24.50L59.91 24.50L58.82 24.50Q59.26 22.46 59.69 20.57Q60.12 18.67 60.70 16.81L60.70 16.81L63.88 6.89L69.26 6.89L62.20 26ZM78.34 26.38L78.34 26.38Q75.41 26.38 73.29 25.18Q71.17 23.98 70.04 21.78Q68.90 19.57 68.90 16.55L68.90 16.55Q68.90 13.59 70.03 11.37Q71.16 9.15 73.23 7.90Q75.29 6.65 78.08 6.65L78.08 6.65Q79.96 6.65 81.58 7.25Q83.21 7.85 84.44 9.06Q85.67 10.26 86.36 12.07Q87.05 13.88 87.05 16.34L87.05 16.34L87.05 17.78L71.00 17.78L71.00 14.57L84.54 14.57L82.15 15.42Q82.15 13.93 81.69 12.83Q81.24 11.73 80.34 11.12Q79.45 10.52 78.11 10.52L78.11 10.52Q76.80 10.52 75.87 11.13Q74.93 11.75 74.46 12.80Q73.98 13.85 73.98 15.20L73.98 15.20L73.98 17.47Q73.98 19.13 74.53 20.26Q75.09 21.39 76.09 21.95Q77.09 22.51 78.42 22.51L78.42 22.51Q79.33 22.51 80.06 22.26Q80.80 22.00 81.32 21.50Q81.84 20.99 82.11 20.26L82.11 20.26L86.76 21.13Q86.30 22.70 85.15 23.89Q84.01 25.08 82.29 25.73Q80.57 26.38 78.34 26.38ZM93.41 26L88.28 26L88.28 6.89L93.24 6.89L93.24 10.23L93.44 10.23Q93.97 8.45 95.21 7.54Q96.45 6.64 98.05 6.64L98.05 6.64Q98.45 6.64 98.90 6.68Q99.35 6.72 99.71 6.81L99.71 6.81L99.71 11.39Q99.37 11.27 98.72 11.20Q98.07 11.13 97.49 11.13L97.49 11.13Q96.33 11.13 95.39 11.64Q94.45 12.14 93.93 13.04Q93.41 13.93 93.41 15.13L93.41 15.13L93.41 26Z"/></g>
        
      </svg>
    